<?xml version="1.0" encoding="iso-8859-1"?>
<!-- Generator: Adobe Illustrator 19.2.1, SVG Export Plug-In . SVG Version: 6.00 Build 0)  -->
<svg version="1.1" id="Layer_2" xmlns="http://www.w3.org/2000/svg" xmlns:xlink="http://www.w3.org/1999/xlink" x="0px" y="0px"
	 viewBox="0 0 70 13" xml:space="preserve" fill="#fff">
<path d="M64.0296478,0.4468302v1.4734915h0.5516739c0.4632797,0,0.6108322,0.0684911,0.6108322,0.2398698
	c0,0.1026983-0.0631332,0.2228968-0.1897202,0.3940387l-2.1862793,2.3341889
	c-0.2790604,0.3190069-0.5775871,0.2858844-0.821579,0.031322l-2.0608177-2.2458396
	c-0.1053505-0.1366386-0.2738457-0.2738519-0.2738457-0.4452722c0-0.2055917,0.2319069-0.3083076,0.7795982-0.3083076h0.5386429
	V0.4468302h-7.5624237v1.4734915c1.8740311,0,1.7807617,0.171438,2.4544716,0.9592249l4.0730896,4.505856v2.2791042
	c0,0.5827112-0.2950325,0.7877874-1.1372795,0.7877874h-1.3060074v1.4220324h8.3618813v-1.4220324h-1.3057709
	c-0.8427277,0-1.1375694-0.2050762-1.1375694-0.7877874V7.3854027l3.4585762-3.7347462
	c1.2635803-1.5934532,1.4320679-1.7303348,2.3379669-1.7303348H70V0.4468302H64.0296478z"/>
<path d="M3.1953249,3.0846763c0-0.9077544,1.6790891-1.5246955,3.6684294-1.5246955
	c1.5416803,0,3.3740911,0.6475581,4.2206297,1.4252142c0.4693956,0.4311368,0.9836273,0.7509198,1.1327543,1.572973h1.6846933
	V0.4463089h-1.8239803c0.0047569,0.9438097-0.3582325,0.9135779-0.7457838,0.6625289
	C9.9353552,0.3189122,8.4792995,0.0864892,6.7395806,0.0864892C2.6112754,0.0864892,0,1.5599808,0,3.9072566
	c0,2.2615213,2.0641289,2.8954711,4.8991065,3.324019l2.5120611,0.4109941
	c2.9589086,0.462482,3.8772502,0.6681743,3.8772502,1.5246949c0,0.8567934-0.9286976,1.4469566-3.6285944,1.4734449
	c-1.7907805,0.0176363-3.743556-0.5309143-4.564033-1.2847729C2.623219,8.9271011,2.1089938,8.7047138,1.7358975,7.6250238
	H0.0443199v4.2490187H1.914747c0.0793386-0.5972662,0.2592483-1.073967,0.6835425-0.8289785
	c1.352813,0.718502,3.6458278,1.188798,5.1610327,1.188798c4.3768959,0,6.814085-1.3878078,6.814085-3.8719473
	C14.5734072,3.5989015,3.1953249,5.6035976,3.1953249,3.0846763z"/>
<path d="M45.463253,1.9553049h1.0473175c0.8915939,0,1.2030716,0.2056925,1.2030716,0.8051391
	l-0.036068,4.5697851l-7.251133-6.7969041h-5.9830933v1.4219795h1.1462784c0.8913155,0,1.2033539,0.2056925,1.2033539,0.8051391
	v6.9902744c0,0.5827637-0.3120384,0.8050861-1.2033539,0.8050861h-1.1462784v1.4050121h6.9192276v-1.4050121h-1.1590309
	c-0.8910751,0-1.2031136-0.2223225-1.2031136-0.8050861V3.9428024l8.4449577,7.9978771l2.6084023,0.0201368V2.7604439
	c0-0.5994465,0.3120499-0.8051391,1.2038727-0.8051391h0.8687439V0.5333253H45.463253V1.9553049z"/>
<path d="M25.3590813,0c-5.3101788,0-8.6341972,2.3474951-8.6341972,6.116549
	c0,3.7010427,3.2778625,6.0308185,8.4723091,6.0308185c5.5173798,0,8.7265282-2.295557,8.7265282-6.2192593
	C33.9237213,2.399013,30.4606323,0,25.3590813,0z M25.2383251,10.6568966c-2.9392643,0-4.6290226-1.6963882-4.6290226-4.6260843
	c0-2.8609738,1.7632618-4.5573206,4.7757568-4.5573206c2.8901672,0,4.5798798,1.7306131,4.5798798,4.6775193
	C29.9649391,9.0292301,28.2508202,10.6568966,25.2383251,10.6568966z"/>
</svg>
